<svg width="1106" height="830" xmlns="http://www.w3.org/2000/svg">

 <g>
  <title>background</title>
  <rect fill="none" id="canvas_background" height="832" width="1108" y="-1" x="-1"/>
 </g>
 <g>
  <title>Layer 1</title>
  <g stroke="null" id="svg_1">
   <path fill="#00acbc" stroke="null" id="svg_2" d="m902.333878,208.310514c0,-17.952385 14.921786,-32.468906 33.375356,-32.468906c18.45357,0 33.375356,14.516522 33.375356,32.468906l0,416.598403c0,17.952385 -14.921786,32.468906 -33.375356,32.468906c-18.45357,0 -33.375356,-14.516522 -33.375356,-32.468906l0,-416.598403l0,0zm-891.333905,73.012091c0,-17.952385 14.921786,-32.468906 33.375356,-32.468906c18.45357,0 33.375356,14.516522 33.375356,32.468906l0,270.488324c0,17.952385 -14.921786,32.468906 -33.375356,32.468906c-18.45357,0 -33.375356,-14.516522 -33.375356,-32.468906l0,-270.488324l0,0zm127.320802,-73.012091c0,-17.952385 14.921786,-32.468906 33.375356,-32.468906c18.45357,0 33.375356,14.516522 33.375356,32.468906l0,416.598403c0,17.952385 -14.921786,32.468906 -33.375356,32.468906c-18.45357,0 -33.375356,-14.516522 -33.375356,-32.468906l0,-416.598403l0,0zm127.850569,-80.914576c0,-17.866488 14.745197,-32.297113 32.845588,-32.297113c18.188686,0 32.845588,14.430625 32.845588,32.297113l0,578.427555c0,17.866488 -14.745197,32.297113 -32.845588,32.297113c-18.188686,0 -32.845588,-14.430625 -32.845588,-32.297113l0,-578.427555l0,0zm126.791034,-86.927337c0,-17.952385 14.921786,-32.468906 33.375356,-32.468906c18.45357,0 33.375356,14.516522 33.375356,32.468906l0,752.196332c0,17.952385 -14.921786,32.468906 -33.375356,32.468906c-18.45357,0 -33.375356,-14.516522 -33.375356,-32.468906l0,-752.196332l0,0zm382.050699,240.854004c0,-17.952385 14.921786,-32.468906 33.375356,-32.468906c18.45357,0 33.375356,14.516522 33.375356,32.468906l0,270.488324c0,17.952385 -14.921786,32.468906 -33.375356,32.468906c-18.45357,0 -33.375356,-14.516522 -33.375356,-32.468906l0,-270.488324l0,0zm-127.320802,-73.012091c0,-17.952385 14.921786,-32.468906 33.375356,-32.468906c18.45357,0 33.375356,14.516522 33.375356,32.468906l0,416.598403c0,17.952385 -14.921786,32.468906 -33.375356,32.468906c-18.45357,0 -33.375356,-14.516522 -33.375356,-32.468906l0,-416.598403l0,0zm-126.879329,-80.914576c0,-17.866488 14.745197,-32.297113 32.845588,-32.297113c18.188686,0 32.845588,14.430625 32.845588,32.297113l0,578.427555c0,17.866488 -14.745197,32.297113 -32.845588,32.297113c-18.188686,0 -32.845588,-14.430625 -32.845588,-32.297113l0,-578.427555l0,0zm509.371501,0c0,-17.866488 14.745197,-32.297113 32.845588,-32.297113c18.188686,0 32.845588,14.430625 32.845588,32.297113l0,578.427555c0,17.866488 -14.745197,32.297113 -32.845588,32.297113c-18.188686,0 -32.845588,-14.430625 -32.845588,-32.297113l0,-578.427555l0,0z"/>
  </g>
 </g>
</svg>